<?xml version="1.0" encoding="utf-8"?>
<COLLADA xmlns="http://www.collada.org/2005/11/COLLADASchema" version="1.4.1" xmlns:xsi="http://www.w3.org/2001/XMLSchema-instance">
  <asset>
    <contributor>
      <author>Blender User</author>
      <authoring_tool>Blender 4.5.9 LTS commit date:2026-04-20, commit time:14:24, hash:8bf95cbd38d1</authoring_tool>
    </contributor>
    <created>2026-05-08T18:21:23</created>
    <modified>2026-05-08T18:21:23</modified>
    <unit name="meter" meter="1"/>
    <up_axis>Z_UP</up_axis>
  </asset>
  <library_effects/>
  <library_images/>
  <library_geometries>
    <geometry id="_35658904-mesh" name="535658904">
      <mesh>
        <source id="_35658904-mesh-positions">
          <float_array id="_35658904-mesh-positions-array" count="72">-27.53926 -102.872 39.50822 -25.97198 -106.245 40.1085 -44.68981 -114.9613 40.20817 -50.94774 -101.5028 37.72873 -48.30575 -100.2782 37.838 -49.71631 -97.26149 37.72315 -37.4915 -91.57307 39.12215 -36.1929 -94.35605 39.07222 -32.4874 -92.6306 39.17309 -30.64024 -96.60471 39.09427 -26.76682 -94.80133 39.08732 -23.82256 -101.1465 39.21466 -27.53926 -102.872 60.20817 -23.82256 -101.1465 60.20817 -26.76682 -94.80133 60.20817 -30.64024 -96.60471 60.20817 -32.4874 -92.6306 60.20817 -36.1929 -94.35605 60.20817 -37.4915 -91.57307 60.20817 -49.71631 -97.26149 60.20817 -48.30575 -100.2782 60.20817 -50.94774 -101.5028 60.20817 -44.68981 -114.9613 60.20817 -25.97198 -106.245 60.20817</float_array>
          <technique_common>
            <accessor source="#_35658904-mesh-positions-array" count="24" stride="3">
              <param name="X" type="float"/>
              <param name="Y" type="float"/>
              <param name="Z" type="float"/>
            </accessor>
          </technique_common>
        </source>
        <source id="_35658904-mesh-normals">
          <float_array id="_35658904-mesh-normals-array" count="102">0 0 1 0.4210804 -0.9070234 0 0.9071038 0.420907 0 -0.4220734 0.9065617 0 0.9068318 0.4214928 0 -0.4221245 0.9065379 0 0.9061984 0.4228529 0 -0.4218812 0.9066511 0 -0.9058683 -0.4235596 0 -0.4205126 0.9072867 0 -0.9067687 -0.4216283 0 0.4221428 -0.9065294 0 0.9068797 0.4213895 0 0 0 1 0 0 1 0 0 1 0 0 1 0 0 1 0 0 1 0 0 1 0 0 1 0 0 1 0.4210803 -0.9070233 0 0.9071038 0.420907 0 -0.4220734 0.9065617 0 0.9068318 0.4214927 0 -0.4221245 0.9065379 0 0.9061984 0.4228529 0 -0.4218812 0.9066511 0 -0.9058682 -0.4235596 0 -0.4205126 0.9072867 0 -0.9067687 -0.4216283 0 0.4221427 -0.9065294 0 0.9068798 0.4213895 0</float_array>
          <technique_common>
            <accessor source="#_35658904-mesh-normals-array" count="34" stride="3">
              <param name="X" type="float"/>
              <param name="Y" type="float"/>
              <param name="Z" type="float"/>
            </accessor>
          </technique_common>
        </source>
        <vertices id="_35658904-mesh-vertices">
          <input semantic="POSITION" source="#_35658904-mesh-positions"/>
        </vertices>
        <triangles count="34">
          <input semantic="VERTEX" source="#_35658904-mesh-vertices" offset="0"/>
          <input semantic="NORMAL" source="#_35658904-mesh-normals" offset="1"/>
          <p>12 0 17 0 20 0 13 1 0 1 11 1 14 2 11 2 10 2 9 3 14 3 10 3 8 4 15 4 9 4 17 5 8 5 7 5 6 6 17 6 7 6 19 7 6 7 5 7 4 8 19 8 5 8 21 9 4 9 3 9 2 10 21 10 3 10 23 11 2 11 1 11 12 12 1 12 0 12 12 13 13 13 14 13 15 14 16 14 17 14 12 15 14 15 15 15 22 16 23 16 12 16 20 17 21 17 22 17 18 18 19 18 17 18 19 19 20 19 17 19 12 20 15 20 17 20 20 21 22 21 12 21 13 22 12 22 0 22 14 23 13 23 11 23 9 24 15 24 14 24 8 25 16 25 15 25 17 26 16 26 8 26 6 27 18 27 17 27 19 28 18 28 6 28 4 29 20 29 19 29 21 30 20 30 4 30 2 31 22 31 21 31 23 32 22 32 2 32 12 33 23 33 1 33</p>
        </triangles>
      </mesh>
    </geometry>
    <geometry id="_35658903-mesh" name="535658903">
      <mesh>
        <source id="_35658903-mesh-positions">
          <float_array id="_35658903-mesh-positions-array" count="48">-7.881057 -72.87139 38.35181 -6.19063 -76.0774 38.28569 -4.276306 -75.06439 38.11809 0.9405091 -84.90503 38.4145 -6.134655 -88.6565 38.68192 -9.01174 -83.21297 38.59024 -23.54269 -90.91628 39.0691 -27.57285 -83.30203 39.26336 -7.881057 -72.87139 59.26336 -27.57285 -83.30203 59.26336 -23.54269 -90.91628 59.26336 -9.01174 -83.21297 59.26336 -6.134655 -88.6565 59.26336 0.9405091 -84.90503 59.26336 -4.276306 -75.06439 59.26336 -6.19063 -76.0774 59.26336</float_array>
          <technique_common>
            <accessor source="#_35658903-mesh-positions-array" count="16" stride="3">
              <param name="X" type="float"/>
              <param name="Y" type="float"/>
              <param name="Z" type="float"/>
            </accessor>
          </technique_common>
        </source>
        <source id="_35658903-mesh-normals">
          <float_array id="_35658903-mesh-normals-array" count="66">0 0 1 -0.4680829 0.8836846 0 -0.883832 -0.4678044 0 0.468384 -0.8835251 0 -0.884109 -0.4672809 0 0.4684523 -0.8834888 0 0.8835256 0.4683829 0 -0.4677227 0.8838753 0 0.8845703 0.466407 0 0 0 1 0 0 1 0 0 1 0 0 1 0 0 1 -0.4680829 0.8836846 0 -0.883832 -0.4678044 0 0.468384 -0.883525 0 -0.8841089 -0.4672808 0 0.4684523 -0.8834888 0 0.8835256 0.4683829 0 -0.4677227 0.8838753 0 0.8845703 0.466407 0</float_array>
          <technique_common>
            <accessor source="#_35658903-mesh-normals-array" count="22" stride="3">
              <param name="X" type="float"/>
              <param name="Y" type="float"/>
              <param name="Z" type="float"/>
            </accessor>
          </technique_common>
        </source>
        <vertices id="_35658903-mesh-vertices">
          <input semantic="POSITION" source="#_35658903-mesh-positions"/>
        </vertices>
        <triangles count="22">
          <input semantic="VERTEX" source="#_35658903-mesh-vertices" offset="0"/>
          <input semantic="NORMAL" source="#_35658903-mesh-normals" offset="1"/>
          <p>11 0 13 0 15 0 7 1 8 1 0 1 10 2 7 2 6 2 11 3 6 3 5 3 4 4 11 4 5 4 13 5 4 5 3 5 14 6 3 6 2 6 1 7 14 7 2 7 0 8 15 8 1 8 15 9 8 9 11 9 8 10 9 10 11 10 9 11 10 11 11 11 11 12 12 12 13 12 13 13 14 13 15 13 7 14 9 14 8 14 10 15 9 15 7 15 11 16 10 16 6 16 4 17 12 17 11 17 13 18 12 18 4 18 14 19 13 19 3 19 1 20 15 20 14 20 0 21 8 21 15 21</p>
        </triangles>
      </mesh>
    </geometry>
    <geometry id="_35658902-mesh" name="535658902">
      <mesh>
        <source id="_35658902-mesh-positions">
          <float_array id="_35658902-mesh-positions-array" count="24">-110.3141 119.3774 25.48831 -106.1272 107.7334 25.74036 -121.3635 102.2676 25.25041 -125.5503 113.9116 25.08605 -110.3141 119.3774 45.74036 -125.5503 113.9116 45.74036 -121.3635 102.2676 45.74036 -106.1272 107.7334 45.74036</float_array>
          <technique_common>
            <accessor source="#_35658902-mesh-positions-array" count="8" stride="3">
              <param name="X" type="float"/>
              <param name="Y" type="float"/>
              <param name="Z" type="float"/>
            </accessor>
          </technique_common>
        </source>
        <source id="_35658902-mesh-normals">
          <float_array id="_35658902-mesh-normals-array" count="30">0 0 1 -0.3376668 0.9412657 0 -0.9410154 -0.3383637 0 0.3376668 -0.9412658 0 0.9410154 0.3383637 0 0 0 1 -0.3376668 0.9412657 0 -0.9410154 -0.3383637 0 0.3376668 -0.9412657 0 0.9410154 0.3383637 0</float_array>
          <technique_common>
            <accessor source="#_35658902-mesh-normals-array" count="10" stride="3">
              <param name="X" type="float"/>
              <param name="Y" type="float"/>
              <param name="Z" type="float"/>
            </accessor>
          </technique_common>
        </source>
        <vertices id="_35658902-mesh-vertices">
          <input semantic="POSITION" source="#_35658902-mesh-positions"/>
        </vertices>
        <triangles count="10">
          <input semantic="VERTEX" source="#_35658902-mesh-vertices" offset="0"/>
          <input semantic="NORMAL" source="#_35658902-mesh-normals" offset="1"/>
          <p>4 0 6 0 7 0 5 1 0 1 3 1 2 2 5 2 3 2 1 3 6 3 2 3 4 4 1 4 0 4 4 5 5 5 6 5 5 6 4 6 0 6 2 7 6 7 5 7 1 8 7 8 6 8 4 9 7 9 1 9</p>
        </triangles>
      </mesh>
    </geometry>
    <geometry id="_35658901-mesh" name="535658901">
      <mesh>
        <source id="_35658901-mesh-positions">
          <float_array id="_35658901-mesh-positions-array" count="24">-83.14419 114.3012 26.46827 -85.83096 104.1489 26.54342 -99.92529 107.8781 25.94412 -97.23852 118.0304 25.94839 -83.14419 114.3012 46.54342 -97.23852 118.0304 46.54342 -99.92529 107.8781 46.54342 -85.83096 104.1489 46.54342</float_array>
          <technique_common>
            <accessor source="#_35658901-mesh-positions-array" count="8" stride="3">
              <param name="X" type="float"/>
              <param name="Y" type="float"/>
              <param name="Z" type="float"/>
            </accessor>
          </technique_common>
        </source>
        <source id="_35658901-mesh-normals">
          <float_array id="_35658901-mesh-normals-array" count="30">0 0 1 0.2557868 0.9667332 0 -0.9667198 0.2558378 0 -0.2557868 -0.9667332 0 0.9667198 -0.2558378 0 0 0 1 0.2557868 0.9667332 0 -0.9667198 0.2558378 0 -0.2557868 -0.9667332 0 0.9667198 -0.2558378 0</float_array>
          <technique_common>
            <accessor source="#_35658901-mesh-normals-array" count="10" stride="3">
              <param name="X" type="float"/>
              <param name="Y" type="float"/>
              <param name="Z" type="float"/>
            </accessor>
          </technique_common>
        </source>
        <vertices id="_35658901-mesh-vertices">
          <input semantic="POSITION" source="#_35658901-mesh-positions"/>
        </vertices>
        <triangles count="10">
          <input semantic="VERTEX" source="#_35658901-mesh-vertices" offset="0"/>
          <input semantic="NORMAL" source="#_35658901-mesh-normals" offset="1"/>
          <p>5 0 7 0 4 0 5 1 0 1 3 1 6 2 3 2 2 2 1 3 6 3 2 3 4 4 1 4 0 4 5 5 6 5 7 5 5 6 4 6 0 6 6 7 5 7 3 7 1 8 7 8 6 8 4 9 7 9 1 9</p>
        </triangles>
      </mesh>
    </geometry>
    <geometry id="_35658900-mesh" name="535658900">
      <mesh>
        <source id="_35658900-mesh-positions">
          <float_array id="_35658900-mesh-positions-array" count="42">-126.6362 102.5793 25.08083 -128.3714 92.939 25.00682 -144.2233 95.78878 24.20513 -142.5553 105.0506 24.43096 -140.8089 114.8021 24.55531 -130.7335 112.9988 24.91815 -132.4128 103.6145 24.85248 -126.6362 102.5793 45.08083 -132.4128 103.6145 45.08083 -130.7335 112.9988 45.08083 -140.8089 114.8021 45.08083 -142.5553 105.0506 45.08083 -144.2233 95.78878 45.08083 -128.3714 92.939 45.08083</float_array>
          <technique_common>
            <accessor source="#_35658900-mesh-positions-array" count="14" stride="3">
              <param name="X" type="float"/>
              <param name="Y" type="float"/>
              <param name="Z" type="float"/>
            </accessor>
          </technique_common>
        </source>
        <source id="_35658900-mesh-normals">
          <float_array id="_35658900-mesh-normals-array" count="57">0 0 1 0.176409 0.984317 0 0.9843645 -0.1761438 0 0.1761883 0.9843565 0 -0.9843393 0.176284 0 -0.9841665 0.1772466 0 -0.1769384 -0.9842219 0 0.984184 -0.1771489 0 0 0 1 0 0 1 0 0 1 0 0 1 0.176409 0.984317 0 0.9843645 -0.1761437 0 0.1761883 0.9843565 0 -0.9843394 0.176284 0 -0.9841665 0.1772466 0 -0.1769384 -0.9842219 0 0.984184 -0.1771489 0</float_array>
          <technique_common>
            <accessor source="#_35658900-mesh-normals-array" count="19" stride="3">
              <param name="X" type="float"/>
              <param name="Y" type="float"/>
              <param name="Z" type="float"/>
            </accessor>
          </technique_common>
        </source>
        <vertices id="_35658900-mesh-vertices">
          <input semantic="POSITION" source="#_35658900-mesh-positions"/>
        </vertices>
        <triangles count="19">
          <input semantic="VERTEX" source="#_35658900-mesh-vertices" offset="0"/>
          <input semantic="NORMAL" source="#_35658900-mesh-normals" offset="1"/>
          <p>8 0 10 0 11 0 8 1 0 1 6 1 5 2 8 2 6 2 10 3 5 3 4 3 11 4 4 4 3 4 12 5 3 5 2 5 1 6 12 6 2 6 0 7 13 7 1 7 13 8 7 8 8 8 8 9 9 9 10 9 11 10 12 10 8 10 12 11 13 11 8 11 8 12 7 12 0 12 5 13 9 13 8 13 10 14 9 14 5 14 11 15 10 15 4 15 12 16 11 16 3 16 1 17 13 17 12 17 0 18 7 18 13 18</p>
        </triangles>
      </mesh>
    </geometry>
    <geometry id="_32552725-mesh" name="332552725">
      <mesh>
        <source id="_32552725-mesh-positions">
          <float_array id="_32552725-mesh-positions-array" count="24">165.0129 -90.49327 30.64108 164.0837 -99.81071 31.75145 145.0748 -97.39508 34.49623 146.1943 -87.88839 32.66627 165.0129 -90.49327 54.49623 146.1943 -87.88839 54.49623 145.0748 -97.39508 54.49623 164.0837 -99.81071 54.49623</float_array>
          <technique_common>
            <accessor source="#_32552725-mesh-positions-array" count="8" stride="3">
              <param name="X" type="float"/>
              <param name="Y" type="float"/>
              <param name="Z" type="float"/>
            </accessor>
          </technique_common>
        </source>
        <source id="_32552725-mesh-normals">
          <float_array id="_32552725-mesh-normals-array" count="30">0 0 1 0.1371126 0.9905555 0 -0.9931378 0.1169503 0 -0.1260648 -0.992022 0 0.9950644 -0.09923136 0 0 0 1 0.1371126 0.9905555 0 -0.9931377 0.1169503 0 -0.1260649 -0.9920221 0 0.9950644 -0.09923136 0</float_array>
          <technique_common>
            <accessor source="#_32552725-mesh-normals-array" count="10" stride="3">
              <param name="X" type="float"/>
              <param name="Y" type="float"/>
              <param name="Z" type="float"/>
            </accessor>
          </technique_common>
        </source>
        <vertices id="_32552725-mesh-vertices">
          <input semantic="POSITION" source="#_32552725-mesh-positions"/>
        </vertices>
        <triangles count="10">
          <input semantic="VERTEX" source="#_32552725-mesh-vertices" offset="0"/>
          <input semantic="NORMAL" source="#_32552725-mesh-normals" offset="1"/>
          <p>4 0 6 0 7 0 3 1 4 1 0 1 2 2 5 2 3 2 7 3 2 3 1 3 4 4 1 4 0 4 4 5 5 5 6 5 3 6 5 6 4 6 2 7 6 7 5 7 7 8 6 8 2 8 4 9 7 9 1 9</p>
        </triangles>
      </mesh>
    </geometry>
    <geometry id="Water_Tank-mesh" name="Water Tank">
      <mesh>
        <source id="Water_Tank-mesh-positions">
          <float_array id="Water_Tank-mesh-positions-array" count="24">36.37232 -139.9748 49.13243 26.82308 -139.9748 48.82965 25.62523 -150.1271 49.83966 36.97684 -149.5371 50.07959 36.37232 -139.9748 70.07959 26.82308 -139.9748 70.07959 25.62523 -150.1271 70.07959 36.97684 -149.5371 70.07959</float_array>
          <technique_common>
            <accessor source="#Water_Tank-mesh-positions-array" count="8" stride="3">
              <param name="X" type="float"/>
              <param name="Y" type="float"/>
              <param name="Z" type="float"/>
            </accessor>
          </technique_common>
        </source>
        <source id="Water_Tank-mesh-normals">
          <float_array id="Water_Tank-mesh-normals-array" count="30">0 0 1 0 1 0 -0.9931113 0.1171751 0 0.05190455 -0.9986521 0 0.9980076 0.06309348 0 0 0 1 0 1 0 -0.9931113 0.1171751 0 0.05190455 -0.9986521 0 0.9980077 0.06309348 0</float_array>
          <technique_common>
            <accessor source="#Water_Tank-mesh-normals-array" count="10" stride="3">
              <param name="X" type="float"/>
              <param name="Y" type="float"/>
              <param name="Z" type="float"/>
            </accessor>
          </technique_common>
        </source>
        <vertices id="Water_Tank-mesh-vertices">
          <input semantic="POSITION" source="#Water_Tank-mesh-positions"/>
        </vertices>
        <triangles count="10">
          <input semantic="VERTEX" source="#Water_Tank-mesh-vertices" offset="0"/>
          <input semantic="NORMAL" source="#Water_Tank-mesh-normals" offset="1"/>
          <p>5 0 7 0 4 0 5 1 0 1 1 1 2 2 5 2 1 2 3 3 6 3 2 3 4 4 3 4 0 4 5 5 6 5 7 5 5 6 4 6 0 6 2 7 6 7 5 7 3 8 7 8 6 8 4 9 7 9 3 9</p>
        </triangles>
      </mesh>
    </geometry>
    <geometry id="Guest_House-mesh" name="Guest House">
      <mesh>
        <source id="Guest_House-mesh-positions">
          <float_array id="Guest_House-mesh-positions-array" count="24">41.77945 153.597 32.26333 22.87129 160.7548 29.37678 10.99351 129.3739 31.14533 29.91287 122.216 34.12608 41.77945 153.597 54.12608 22.87129 160.7548 54.12608 10.99351 129.3739 54.12608 29.91287 122.216 54.12608</float_array>
          <technique_common>
            <accessor source="#Guest_House-mesh-positions-array" count="8" stride="3">
              <param name="X" type="float"/>
              <param name="Y" type="float"/>
              <param name="Z" type="float"/>
            </accessor>
          </technique_common>
        </source>
        <source id="Guest_House-mesh-normals">
          <float_array id="Guest_House-mesh-normals-array" count="30">0 0 1 0.354039 0.9352307 0 -0.9352478 0.3539936 0 -0.3538559 -0.9353 0 0.9353583 -0.3537018 0 0 0 1 0.3540391 0.9352307 0 -0.9352478 0.3539936 0 -0.3538559 -0.9352999 0 0.9353582 -0.3537018 0</float_array>
          <technique_common>
            <accessor source="#Guest_House-mesh-normals-array" count="10" stride="3">
              <param name="X" type="float"/>
              <param name="Y" type="float"/>
              <param name="Z" type="float"/>
            </accessor>
          </technique_common>
        </source>
        <vertices id="Guest_House-mesh-vertices">
          <input semantic="POSITION" source="#Guest_House-mesh-positions"/>
        </vertices>
        <triangles count="10">
          <input semantic="VERTEX" source="#Guest_House-mesh-vertices" offset="0"/>
          <input semantic="NORMAL" source="#Guest_House-mesh-normals" offset="1"/>
          <p>4 0 6 0 7 0 5 1 0 1 1 1 2 2 5 2 1 2 3 3 6 3 2 3 4 4 3 4 0 4 4 5 5 5 6 5 5 6 4 6 0 6 2 7 6 7 5 7 3 8 7 8 6 8 4 9 7 9 3 9</p>
        </triangles>
      </mesh>
    </geometry>
    <geometry id="Cafeteria-mesh" name="Cafeteria">
      <mesh>
        <source id="Cafeteria-mesh-positions">
          <float_array id="Cafeteria-mesh-positions-array" count="24">40.55921 -11.59001 37.54257 29.80092 -34.27692 37.85761 66.83362 -49.20486 35.83675 76.98739 -25.91683 35.11337 40.55921 -11.59001 57.85761 29.80092 -34.27692 57.85761 66.83362 -49.20486 57.85761 76.98739 -25.91683 57.85761</float_array>
          <technique_common>
            <accessor source="#Cafeteria-mesh-positions-array" count="8" stride="3">
              <param name="X" type="float"/>
              <param name="Y" type="float"/>
              <param name="Z" type="float"/>
            </accessor>
          </technique_common>
        </source>
        <source id="Cafeteria-mesh-normals">
          <float_array id="Cafeteria-mesh-normals-array" count="30">0 0 1 -0.9035551 0.4284719 0 -0.3738693 -0.9274814 0 0.9166589 -0.3996706 0 0.3660008 0.9306145 0 0 0 1 -0.9035551 0.4284719 0 -0.3738693 -0.9274814 0 0.9166588 -0.3996706 0 0.3660008 0.9306145 0</float_array>
          <technique_common>
            <accessor source="#Cafeteria-mesh-normals-array" count="10" stride="3">
              <param name="X" type="float"/>
              <param name="Y" type="float"/>
              <param name="Z" type="float"/>
            </accessor>
          </technique_common>
        </source>
        <vertices id="Cafeteria-mesh-vertices">
          <input semantic="POSITION" source="#Cafeteria-mesh-positions"/>
        </vertices>
        <triangles count="10">
          <input semantic="VERTEX" source="#Cafeteria-mesh-vertices" offset="0"/>
          <input semantic="NORMAL" source="#Cafeteria-mesh-normals" offset="1"/>
          <p>4 0 6 0 7 0 1 1 4 1 0 1 6 2 1 2 2 2 7 3 2 3 3 3 0 4 7 4 3 4 4 5 5 5 6 5 1 6 5 6 4 6 6 7 5 7 1 7 7 8 6 8 2 8 0 9 4 9 7 9</p>
        </triangles>
      </mesh>
    </geometry>
    <geometry id="Department_of_Electrical_and_Information_Engineering-mesh" name="Department of Electrical and Information Engineering">
      <mesh>
        <source id="Department_of_Electrical_and_Information_Engineering-mesh-positions">
          <float_array id="Department_of_Electrical_and_Information_Engineering-mesh-positions-array" count="24">-14.08302 23.35318 37.53799 -26.62128 3.638497 38.98209 16.97158 -26.21739 38.60217 29.50985 -6.502708 37.78953 -14.08302 23.35318 58.98209 -26.62128 3.638497 58.98209 16.97158 -26.21739 58.98209 29.50985 -6.502708 58.98209</float_array>
          <technique_common>
            <accessor source="#Department_of_Electrical_and_Information_Engineering-mesh-positions-array" count="8" stride="3">
              <param name="X" type="float"/>
              <param name="Y" type="float"/>
              <param name="Z" type="float"/>
            </accessor>
          </technique_common>
        </source>
        <source id="Department_of_Electrical_and_Information_Engineering-mesh-normals">
          <float_array id="Department_of_Electrical_and_Information_Engineering-mesh-normals-array" count="30">0 0 1 -0.8438058 0.5366487 0 -0.5650602 -0.8250498 0 0.8438056 -0.5366491 0 0.5650601 0.8250498 0 0 0 1 -0.8438058 0.5366487 0 -0.5650601 -0.8250497 0 0.8438056 -0.536649 0 0.5650601 0.8250498 0</float_array>
          <technique_common>
            <accessor source="#Department_of_Electrical_and_Information_Engineering-mesh-normals-array" count="10" stride="3">
              <param name="X" type="float"/>
              <param name="Y" type="float"/>
              <param name="Z" type="float"/>
            </accessor>
          </technique_common>
        </source>
        <vertices id="Department_of_Electrical_and_Information_Engineering-mesh-vertices">
          <input semantic="POSITION" source="#Department_of_Electrical_and_Information_Engineering-mesh-positions"/>
        </vertices>
        <triangles count="10">
          <input semantic="VERTEX" source="#Department_of_Electrical_and_Information_Engineering-mesh-vertices" offset="0"/>
          <input semantic="NORMAL" source="#Department_of_Electrical_and_Information_Engineering-mesh-normals" offset="1"/>
          <p>5 0 7 0 4 0 1 1 4 1 0 1 6 2 1 2 2 2 7 3 2 3 3 3 4 4 3 4 0 4 5 5 6 5 7 5 1 6 5 6 4 6 6 7 5 7 1 7 7 8 6 8 2 8 4 9 7 9 3 9</p>
        </triangles>
      </mesh>
    </geometry>
    <geometry id="Department_of_Civil_and_Environment_Engineering-mesh" name="Department of Civil and Environment Engineering">
      <mesh>
        <source id="Department_of_Civil_and_Environment_Engineering-mesh-positions">
          <float_array id="Department_of_Civil_and_Environment_Engineering-mesh-positions-array" count="24">25.73718 85.54738 33.92222 -21.01265 105.0394 29.12988 -30.77458 81.62893 29.41314 15.98643 62.13689 33.63935 25.73718 85.54738 53.92222 -21.01265 105.0394 53.92222 -30.77458 81.62893 53.92222 15.98643 62.13689 53.92222</float_array>
          <technique_common>
            <accessor source="#Department_of_Civil_and_Environment_Engineering-mesh-positions-array" count="8" stride="3">
              <param name="X" type="float"/>
              <param name="Y" type="float"/>
              <param name="Z" type="float"/>
            </accessor>
          </technique_common>
        </source>
        <source id="Department_of_Civil_and_Environment_Engineering-mesh-normals">
          <float_array id="Department_of_Civil_and_Environment_Engineering-mesh-normals-array" count="30">0 0 1 0.3848332 0.9229862 0 -0.9229711 0.3848693 0 -0.3847547 -0.9230189 0 0.9231277 -0.3844936 0 0 0 1 0.3848332 0.9229862 0 -0.9229711 0.3848694 0 -0.3847547 -0.9230188 0 0.9231277 -0.3844936 0</float_array>
          <technique_common>
            <accessor source="#Department_of_Civil_and_Environment_Engineering-mesh-normals-array" count="10" stride="3">
              <param name="X" type="float"/>
              <param name="Y" type="float"/>
              <param name="Z" type="float"/>
            </accessor>
          </technique_common>
        </source>
        <vertices id="Department_of_Civil_and_Environment_Engineering-mesh-vertices">
          <input semantic="POSITION" source="#Department_of_Civil_and_Environment_Engineering-mesh-positions"/>
        </vertices>
        <triangles count="10">
          <input semantic="VERTEX" source="#Department_of_Civil_and_Environment_Engineering-mesh-vertices" offset="0"/>
          <input semantic="NORMAL" source="#Department_of_Civil_and_Environment_Engineering-mesh-normals" offset="1"/>
          <p>4 0 6 0 7 0 5 1 0 1 1 1 2 2 5 2 1 2 3 3 6 3 2 3 0 4 7 4 3 4 4 5 5 5 6 5 5 6 4 6 0 6 2 7 6 7 5 7 3 8 7 8 6 8 0 9 4 9 7 9</p>
        </triangles>
      </mesh>
    </geometry>
    <geometry id="Department_of_Mechanical_and_Manufacturing_Engineering-mesh" name="Department of Mechanical and Manufacturing Engineering">
      <mesh>
        <source id="Department_of_Mechanical_and_Manufacturing_Engineering-mesh-positions">
          <float_array id="Department_of_Mechanical_and_Manufacturing_Engineering-mesh-positions-array" count="24">47.01866 63.90687 34.84206 22.74814 62.49311 33.86423 25.89391 8.369576 36.97169 50.16442 9.783333 35.21866 47.01866 63.90687 56.97169 22.74814 62.49311 56.97169 25.89391 8.369576 56.97169 50.16442 9.783333 56.97169</float_array>
          <technique_common>
            <accessor source="#Department_of_Mechanical_and_Manufacturing_Engineering-mesh-positions-array" count="8" stride="3">
              <param name="X" type="float"/>
              <param name="Y" type="float"/>
              <param name="Z" type="float"/>
            </accessor>
          </technique_common>
        </source>
        <source id="Department_of_Mechanical_and_Manufacturing_Engineering-mesh-normals">
          <float_array id="Department_of_Mechanical_and_Manufacturing_Engineering-mesh-normals-array" count="30">0 0 1 -0.05815142 0.9983078 0 -0.9983153 -0.05802398 0 0.05815142 -0.9983078 0 0.9983152 0.05802398 0 0 0 1 -0.05815136 0.9983077 0 -0.9983152 -0.05802398 0 0.05815142 -0.9983078 0 0.9983152 0.05802398 0</float_array>
          <technique_common>
            <accessor source="#Department_of_Mechanical_and_Manufacturing_Engineering-mesh-normals-array" count="10" stride="3">
              <param name="X" type="float"/>
              <param name="Y" type="float"/>
              <param name="Z" type="float"/>
            </accessor>
          </technique_common>
        </source>
        <vertices id="Department_of_Mechanical_and_Manufacturing_Engineering-mesh-vertices">
          <input semantic="POSITION" source="#Department_of_Mechanical_and_Manufacturing_Engineering-mesh-positions"/>
        </vertices>
        <triangles count="10">
          <input semantic="VERTEX" source="#Department_of_Mechanical_and_Manufacturing_Engineering-mesh-vertices" offset="0"/>
          <input semantic="NORMAL" source="#Department_of_Mechanical_and_Manufacturing_Engineering-mesh-normals" offset="1"/>
          <p>5 0 7 0 4 0 5 1 0 1 1 1 2 2 5 2 1 2 7 3 2 3 3 3 4 4 3 4 0 4 5 5 6 5 7 5 5 6 4 6 0 6 2 7 6 7 5 7 7 8 6 8 2 8 4 9 7 9 3 9</p>
        </triangles>
      </mesh>
    </geometry>
    <geometry id="Lecture_Hall_2-mesh" name="Lecture Hall 2">
      <mesh>
        <source id="Lecture_Hall_2-mesh-positions">
          <float_array id="Lecture_Hall_2-mesh-positions-array" count="24">116.998 116.2048 41.71548 96.69041 130.5316 39.71419 84.15213 114.4125 40.46341 103.8551 100.0857 40.73055 116.998 116.2048 61.71548 96.69041 130.5316 61.71548 84.15213 114.4125 61.71548 103.8551 100.0857 61.71548</float_array>
          <technique_common>
            <accessor source="#Lecture_Hall_2-mesh-positions-array" count="8" stride="3">
              <param name="X" type="float"/>
              <param name="Y" type="float"/>
              <param name="Z" type="float"/>
            </accessor>
          </technique_common>
        </source>
        <source id="Lecture_Hall_2-mesh-normals">
          <float_array id="Lecture_Hall_2-mesh-normals-array" count="30">0 0 1 0.5764704 0.817118 0 -0.7893229 0.6139783 0 -0.5881006 -0.8087878 0 0.7750287 -0.6319261 0 0 0 1 0.5764705 0.817118 0 -0.7893229 0.6139783 0 -0.5881006 -0.8087878 0 0.7750287 -0.6319261 0</float_array>
          <technique_common>
            <accessor source="#Lecture_Hall_2-mesh-normals-array" count="10" stride="3">
              <param name="X" type="float"/>
              <param name="Y" type="float"/>
              <param name="Z" type="float"/>
            </accessor>
          </technique_common>
        </source>
        <vertices id="Lecture_Hall_2-mesh-vertices">
          <input semantic="POSITION" source="#Lecture_Hall_2-mesh-positions"/>
        </vertices>
        <triangles count="10">
          <input semantic="VERTEX" source="#Lecture_Hall_2-mesh-vertices" offset="0"/>
          <input semantic="NORMAL" source="#Lecture_Hall_2-mesh-normals" offset="1"/>
          <p>5 0 7 0 4 0 5 1 0 1 1 1 2 2 5 2 1 2 3 3 6 3 2 3 0 4 7 4 3 4 5 5 6 5 7 5 5 6 4 6 0 6 2 7 6 7 5 7 3 8 7 8 6 8 0 9 4 9 7 9</p>
        </triangles>
      </mesh>
    </geometry>
    <geometry id="Lecture_hall_1-mesh" name="Lecture hall 1">
      <mesh>
        <source id="Lecture_hall_1-mesh-positions">
          <float_array id="Lecture_hall_1-mesh-positions-array" count="24">122.0692 76.19654 38.9792 73.10276 117.3959 39.82116 56.98211 97.69234 38.29745 107.1352 57.68411 34.4585 122.0692 76.19654 59.82116 73.10276 117.3959 59.82116 56.98211 97.69234 59.82116 107.1352 57.68411 59.82116</float_array>
          <technique_common>
            <accessor source="#Lecture_hall_1-mesh-positions-array" count="8" stride="3">
              <param name="X" type="float"/>
              <param name="Y" type="float"/>
              <param name="Z" type="float"/>
            </accessor>
          </technique_common>
        </source>
        <source id="Lecture_hall_1-mesh-normals">
          <float_array id="Lecture_hall_1-mesh-normals-array" count="30">0 0 1 0.6438103 0.7651852 0 -0.7739657 0.6332276 0 -0.6236084 -0.7817369 0 0.7783182 -0.6278701 0 0 0 1 0.6438103 0.7651852 0 -0.7739656 0.6332275 0 -0.6236084 -0.781737 0 0.7783182 -0.62787 0</float_array>
          <technique_common>
            <accessor source="#Lecture_hall_1-mesh-normals-array" count="10" stride="3">
              <param name="X" type="float"/>
              <param name="Y" type="float"/>
              <param name="Z" type="float"/>
            </accessor>
          </technique_common>
        </source>
        <vertices id="Lecture_hall_1-mesh-vertices">
          <input semantic="POSITION" source="#Lecture_hall_1-mesh-positions"/>
        </vertices>
        <triangles count="10">
          <input semantic="VERTEX" source="#Lecture_hall_1-mesh-vertices" offset="0"/>
          <input semantic="NORMAL" source="#Lecture_hall_1-mesh-normals" offset="1"/>
          <p>4 0 6 0 7 0 1 1 4 1 0 1 6 2 1 2 2 2 7 3 2 3 3 3 0 4 7 4 3 4 4 5 5 5 6 5 1 6 5 6 4 6 6 7 5 7 1 7 7 8 6 8 2 8 0 9 4 9 7 9</p>
        </triangles>
      </mesh>
    </geometry>
    <geometry id="Administration_Building-mesh" name="Administration Building">
      <mesh>
        <source id="Administration_Building-mesh-positions">
          <float_array id="Administration_Building-mesh-positions-array" count="24">131.708 44.00294 33.55646 118.61 26.15843 31.33755 160.3558 -4.476694 31.82666 173.4427 13.35669 32.45199 131.708 44.00294 53.55646 118.61 26.15843 53.55646 160.3558 -4.476694 53.55646 173.4427 13.35669 53.55646</float_array>
          <technique_common>
            <accessor source="#Administration_Building-mesh-positions-array" count="8" stride="3">
              <param name="X" type="float"/>
              <param name="Y" type="float"/>
              <param name="Z" type="float"/>
            </accessor>
          </technique_common>
        </source>
        <source id="Administration_Building-mesh-normals">
          <float_array id="Administration_Building-mesh-normals-array" count="30">0 0 1 -0.8061453 0.5917177 0 -0.591634 -0.8062067 0 0.8062101 -0.5916294 0 0.5918767 0.8060286 0 0 0 1 -0.8061453 0.5917177 0 -0.591634 -0.8062067 0 0.8062101 -0.5916295 0 0.5918767 0.8060286 0</float_array>
          <technique_common>
            <accessor source="#Administration_Building-mesh-normals-array" count="10" stride="3">
              <param name="X" type="float"/>
              <param name="Y" type="float"/>
              <param name="Z" type="float"/>
            </accessor>
          </technique_common>
        </source>
        <vertices id="Administration_Building-mesh-vertices">
          <input semantic="POSITION" source="#Administration_Building-mesh-positions"/>
        </vertices>
        <triangles count="10">
          <input semantic="VERTEX" source="#Administration_Building-mesh-vertices" offset="0"/>
          <input semantic="NORMAL" source="#Administration_Building-mesh-normals" offset="1"/>
          <p>5 0 7 0 4 0 5 1 0 1 1 1 2 2 5 2 1 2 3 3 6 3 2 3 0 4 7 4 3 4 5 5 6 5 7 5 5 6 4 6 0 6 2 7 6 7 5 7 3 8 7 8 6 8 0 9 4 9 7 9</p>
        </triangles>
      </mesh>
    </geometry>
  </library_geometries>
  <library_visual_scenes>
    <visual_scene id="Scene" name="Scene">
      <node id="_35658904" name="535658904" type="NODE">
        <matrix sid="transform">1 0 0 0 0 1 0 0 0 0 1 0 0 0 0 1</matrix>
        <instance_geometry url="#_35658904-mesh" name="535658904"/>
      </node>
      <node id="_35658903" name="535658903" type="NODE">
        <matrix sid="transform">1 0 0 0 0 1 0 0 0 0 1 0 0 0 0 1</matrix>
        <instance_geometry url="#_35658903-mesh" name="535658903"/>
      </node>
      <node id="_35658902" name="535658902" type="NODE">
        <matrix sid="transform">1 0 0 0 0 1 0 0 0 0 1 0 0 0 0 1</matrix>
        <instance_geometry url="#_35658902-mesh" name="535658902"/>
      </node>
      <node id="_35658901" name="535658901" type="NODE">
        <matrix sid="transform">1 0 0 0 0 1 0 0 0 0 1 0 0 0 0 1</matrix>
        <instance_geometry url="#_35658901-mesh" name="535658901"/>
      </node>
      <node id="_35658900" name="535658900" type="NODE">
        <matrix sid="transform">1 0 0 0 0 1 0 0 0 0 1 0 0 0 0 1</matrix>
        <instance_geometry url="#_35658900-mesh" name="535658900"/>
      </node>
      <node id="_32552725" name="332552725" type="NODE">
        <matrix sid="transform">1 0 0 0 0 1 0 0 0 0 1 0 0 0 0 1</matrix>
        <instance_geometry url="#_32552725-mesh" name="332552725"/>
      </node>
      <node id="Water_Tank" name="Water Tank" type="NODE">
        <matrix sid="transform">1 0 0 0 0 1 0 0 0 0 1 0 0 0 0 1</matrix>
        <instance_geometry url="#Water_Tank-mesh" name="Water Tank"/>
      </node>
      <node id="Guest_House" name="Guest House" type="NODE">
        <matrix sid="transform">1 0 0 0 0 1 0 0 0 0 1 0 0 0 0 1</matrix>
        <instance_geometry url="#Guest_House-mesh" name="Guest House"/>
      </node>
      <node id="Cafeteria" name="Cafeteria" type="NODE">
        <matrix sid="transform">1 0 0 0 0 1 0 0 0 0 1 0 0 0 0 1</matrix>
        <instance_geometry url="#Cafeteria-mesh" name="Cafeteria"/>
      </node>
      <node id="Department_of_Electrical_and_Information_Engineering" name="Department of Electrical and Information Engineering" type="NODE">
        <matrix sid="transform">1 0 0 0 0 1 0 0 0 0 1 0 0 0 0 1</matrix>
        <instance_geometry url="#Department_of_Electrical_and_Information_Engineering-mesh" name="Department of Electrical and Information Engineering"/>
      </node>
      <node id="Department_of_Civil_and_Environment_Engineering" name="Department of Civil and Environment Engineering" type="NODE">
        <matrix sid="transform">1 0 0 0 0 1 0 0 0 0 1 0 0 0 0 1</matrix>
        <instance_geometry url="#Department_of_Civil_and_Environment_Engineering-mesh" name="Department of Civil and Environment Engineering"/>
      </node>
      <node id="Department_of_Mechanical_and_Manufacturing_Engineering" name="Department of Mechanical and Manufacturing Engineering" type="NODE">
        <matrix sid="transform">1 0 0 0 0 1 0 0 0 0 1 0 0 0 0 1</matrix>
        <instance_geometry url="#Department_of_Mechanical_and_Manufacturing_Engineering-mesh" name="Department of Mechanical and Manufacturing Engineering"/>
      </node>
      <node id="Lecture_Hall_2" name="Lecture Hall 2" type="NODE">
        <matrix sid="transform">1 0 0 0 0 1 0 0 0 0 1 0 0 0 0 1</matrix>
        <instance_geometry url="#Lecture_Hall_2-mesh" name="Lecture Hall 2"/>
      </node>
      <node id="Lecture_hall_1" name="Lecture hall 1" type="NODE">
        <matrix sid="transform">1 0 0 0 0 1 0 0 0 0 1 0 0 0 0 1</matrix>
        <instance_geometry url="#Lecture_hall_1-mesh" name="Lecture hall 1"/>
      </node>
      <node id="Administration_Building" name="Administration Building" type="NODE">
        <matrix sid="transform">1 0 0 0 0 1 0 0 0 0 1 0 0 0 0 1</matrix>
        <instance_geometry url="#Administration_Building-mesh" name="Administration Building"/>
      </node>
    </visual_scene>
  </library_visual_scenes>
  <scene>
    <instance_visual_scene url="#Scene"/>
  </scene>
</COLLADA>