    <?xml version="1.0" encoding="utf-8"?>
    <COLLADA xmlns="http://www.collada.org/2005/11/COLLADASchema" version="1.4.1">
      <asset>
        <unit name="meter" meter="1"/>
        <up_axis>Z_UP</up_axis>
      </asset>
      <library_geometries>
        <geometry id="_35658901-mesh" name="535658901">
  <mesh>
    <source id="_35658901-mesh-positions">
      <float_array id="_35658901-mesh-positions-array" count="24">-83.14419 114.3012 26.46827 -85.83096 104.1489 26.54342 -99.92529 107.8781 25.94412 -97.23852 118.0304 25.94839 -83.14419 114.3012 46.54342 -97.23852 118.0304 46.54342 -99.92529 107.8781 46.54342 -85.83096 104.1489 46.54342</float_array>
      <technique_common>
        <accessor source="#_35658901-mesh-positions-array" count="8" stride="3">
          <param name="X" type="float" />
          <param name="Y" type="float" />
          <param name="Z" type="float" />
        </accessor>
      </technique_common>
    </source>
    <source id="_35658901-mesh-normals">
      <float_array id="_35658901-mesh-normals-array" count="30">0 0 1 0.2557868 0.9667332 0 -0.9667198 0.2558378 0 -0.2557868 -0.9667332 0 0.9667198 -0.2558378 0 0 0 1 0.2557868 0.9667332 0 -0.9667198 0.2558378 0 -0.2557868 -0.9667332 0 0.9667198 -0.2558378 0</float_array>
      <technique_common>
        <accessor source="#_35658901-mesh-normals-array" count="10" stride="3">
          <param name="X" type="float" />
          <param name="Y" type="float" />
          <param name="Z" type="float" />
        </accessor>
      </technique_common>
    </source>
    <vertices id="_35658901-mesh-vertices">
      <input semantic="POSITION" source="#_35658901-mesh-positions" />
    </vertices>
    <triangles count="10">
      <input semantic="VERTEX" source="#_35658901-mesh-vertices" offset="0" />
      <input semantic="NORMAL" source="#_35658901-mesh-normals" offset="1" />
      <p>5 0 7 0 4 0 5 1 0 1 3 1 6 2 3 2 2 2 1 3 6 3 2 3 4 4 1 4 0 4 5 5 6 5 7 5 5 6 4 6 0 6 6 7 5 7 3 7 1 8 7 8 6 8 4 9 7 9 1 9</p>
    </triangles>
  </mesh>
</geometry>

      </library_geometries>
      <library_visual_scenes>
        <visual_scene id="Scene" name="Scene">
          <node id="535658901" name="535658901" type="NODE">
            <instance_geometry url="#_35658901-mesh"/>
          </node>
        </visual_scene>
      </library_visual_scenes>
      <scene>
        <instance_visual_scene url="#Scene"/>
      </scene>
    </COLLADA>
