    <?xml version="1.0" encoding="utf-8"?>
    <COLLADA xmlns="http://www.collada.org/2005/11/COLLADASchema" version="1.4.1">
      <asset>
        <unit name="meter" meter="1"/>
        <up_axis>Z_UP</up_axis>
      </asset>
      <library_geometries>
        <geometry id="_35658904-mesh" name="535658904">
  <mesh>
    <source id="_35658904-mesh-positions">
      <float_array id="_35658904-mesh-positions-array" count="72">-27.53926 -102.872 39.50822 -25.97198 -106.245 40.1085 -44.68981 -114.9613 40.20817 -50.94774 -101.5028 37.72873 -48.30575 -100.2782 37.838 -49.71631 -97.26149 37.72315 -37.4915 -91.57307 39.12215 -36.1929 -94.35605 39.07222 -32.4874 -92.6306 39.17309 -30.64024 -96.60471 39.09427 -26.76682 -94.80133 39.08732 -23.82256 -101.1465 39.21466 -27.53926 -102.872 60.20817 -23.82256 -101.1465 60.20817 -26.76682 -94.80133 60.20817 -30.64024 -96.60471 60.20817 -32.4874 -92.6306 60.20817 -36.1929 -94.35605 60.20817 -37.4915 -91.57307 60.20817 -49.71631 -97.26149 60.20817 -48.30575 -100.2782 60.20817 -50.94774 -101.5028 60.20817 -44.68981 -114.9613 60.20817 -25.97198 -106.245 60.20817</float_array>
      <technique_common>
        <accessor source="#_35658904-mesh-positions-array" count="24" stride="3">
          <param name="X" type="float" />
          <param name="Y" type="float" />
          <param name="Z" type="float" />
        </accessor>
      </technique_common>
    </source>
    <source id="_35658904-mesh-normals">
      <float_array id="_35658904-mesh-normals-array" count="102">0 0 1 0.4210804 -0.9070234 0 0.9071038 0.420907 0 -0.4220734 0.9065617 0 0.9068318 0.4214928 0 -0.4221245 0.9065379 0 0.9061984 0.4228529 0 -0.4218812 0.9066511 0 -0.9058683 -0.4235596 0 -0.4205126 0.9072867 0 -0.9067687 -0.4216283 0 0.4221428 -0.9065294 0 0.9068797 0.4213895 0 0 0 1 0 0 1 0 0 1 0 0 1 0 0 1 0 0 1 0 0 1 0 0 1 0 0 1 0.4210803 -0.9070233 0 0.9071038 0.420907 0 -0.4220734 0.9065617 0 0.9068318 0.4214927 0 -0.4221245 0.9065379 0 0.9061984 0.4228529 0 -0.4218812 0.9066511 0 -0.9058682 -0.4235596 0 -0.4205126 0.9072867 0 -0.9067687 -0.4216283 0 0.4221427 -0.9065294 0 0.9068798 0.4213895 0</float_array>
      <technique_common>
        <accessor source="#_35658904-mesh-normals-array" count="34" stride="3">
          <param name="X" type="float" />
          <param name="Y" type="float" />
          <param name="Z" type="float" />
        </accessor>
      </technique_common>
    </source>
    <vertices id="_35658904-mesh-vertices">
      <input semantic="POSITION" source="#_35658904-mesh-positions" />
    </vertices>
    <triangles count="34">
      <input semantic="VERTEX" source="#_35658904-mesh-vertices" offset="0" />
      <input semantic="NORMAL" source="#_35658904-mesh-normals" offset="1" />
      <p>12 0 17 0 20 0 13 1 0 1 11 1 14 2 11 2 10 2 9 3 14 3 10 3 8 4 15 4 9 4 17 5 8 5 7 5 6 6 17 6 7 6 19 7 6 7 5 7 4 8 19 8 5 8 21 9 4 9 3 9 2 10 21 10 3 10 23 11 2 11 1 11 12 12 1 12 0 12 12 13 13 13 14 13 15 14 16 14 17 14 12 15 14 15 15 15 22 16 23 16 12 16 20 17 21 17 22 17 18 18 19 18 17 18 19 19 20 19 17 19 12 20 15 20 17 20 20 21 22 21 12 21 13 22 12 22 0 22 14 23 13 23 11 23 9 24 15 24 14 24 8 25 16 25 15 25 17 26 16 26 8 26 6 27 18 27 17 27 19 28 18 28 6 28 4 29 20 29 19 29 21 30 20 30 4 30 2 31 22 31 21 31 23 32 22 32 2 32 12 33 23 33 1 33</p>
    </triangles>
  </mesh>
</geometry>

      </library_geometries>
      <library_visual_scenes>
        <visual_scene id="Scene" name="Scene">
          <node id="535658904" name="535658904" type="NODE">
            <instance_geometry url="#_35658904-mesh"/>
          </node>
        </visual_scene>
      </library_visual_scenes>
      <scene>
        <instance_visual_scene url="#Scene"/>
      </scene>
    </COLLADA>
