<?xml version="1.0" encoding="utf-8"?>
<COLLADA xmlns="http://www.collada.org/2005/11/COLLADASchema" version="1.4.1">
  <asset><unit name="meter" meter="1"/><up_axis>Z_UP</up_axis></asset>
  <library_geometries>
    <geometry id="B904Roof-mesh" name="Building 535658904 Roof">
      <mesh>
        <source id="B904Roof-positions">
          <float_array id="B904Roof-positions-array" count="39">-27.16615 -103.01619 60.20817 -23.42596 -101.19857 60.20817 -26.40896 -94.62262 60.20817 -30.28578 -96.41936 60.20817 -32.29706 -92.27879 60.20817 -36.19124 -93.95605 60.20817 -37.55497 -91.17814 60.20817 -50.11083 -97.19551 60.20817 -48.70496 -100.30325 60.20817 -51.34416 -101.55617 60.20817 -44.88227 -115.31195 60.20817 -25.63762 -106.46455 60.20817 -36.21436 -99.51942 64.20817</float_array>
          <technique_common>
            <accessor source="#B904Roof-positions-array" count="13" stride="3">
              <param name="X" type="float"/><param name="Y" type="float"/><param name="Z" type="float"/>
            </accessor>
          </technique_common>
        </source>
        <source id="B904Roof-normals">
          <float_array id="B904Roof-normals-array" count="36">0.2145 -0.4415 0.8712 0.3124 0.1417 0.9393 -0.4192 0.9044 0.0797 0.4617 0.2243 0.8582 -0.2441 0.5668 0.7869 0.7636 0.3749 0.5258 -0.1913 0.3992 0.8967 -0.2947 -0.1333 0.9463 -0.2797 0.5892 0.7580 -0.2398 -0.1126 0.9643 0.1459 -0.3174 0.9370 0.4608 0.2042 0.8637</float_array>
          <technique_common>
            <accessor source="#B904Roof-normals-array" count="12" stride="3">
              <param name="X" type="float"/><param name="Y" type="float"/><param name="Z" type="float"/>
            </accessor>
          </technique_common>
        </source>
        <vertices id="B904Roof-vertices">
          <input semantic="POSITION" source="#B904Roof-positions"/>
        </vertices>
        <triangles count="12">
          <input semantic="VERTEX"  source="#B904Roof-vertices" offset="0"/>
          <input semantic="NORMAL"  source="#B904Roof-normals"  offset="1"/>
          <p>0 0 1 0 12 0 1 1 2 1 12 1 2 2 3 2 12 2 3 3 4 3 12 3 4 4 5 4 12 4 5 5 6 5 12 5 6 6 7 6 12 6 7 7 8 7 12 7 8 8 9 8 12 8 9 9 10 9 12 9 10 10 11 10 12 10 11 11 0 11 12 11</p>
        </triangles>
      </mesh>
    </geometry>
  </library_geometries>
  <library_visual_scenes>
    <visual_scene id="Scene" name="Scene">
      <node id="B904Roof-node" name="Building 535658904 Roof" type="NODE">
        <instance_geometry url="#B904Roof-mesh"/>
      </node>
    </visual_scene>
  </library_visual_scenes>
  <scene><instance_visual_scene url="#Scene"/></scene>
</COLLADA>
