    <?xml version="1.0" encoding="utf-8"?>
    <COLLADA xmlns="http://www.collada.org/2005/11/COLLADASchema" version="1.4.1">
      <asset>
        <unit name="meter" meter="1"/>
        <up_axis>Z_UP</up_axis>
      </asset>
      <library_geometries>
        <geometry id="_35658900-mesh" name="535658900">
  <mesh>
    <source id="_35658900-mesh-positions">
      <float_array id="_35658900-mesh-positions-array" count="42">-126.6362 102.5793 25.08083 -128.3714 92.939 25.00682 -144.2233 95.78878 24.20513 -142.5553 105.0506 24.43096 -140.8089 114.8021 24.55531 -130.7335 112.9988 24.91815 -132.4128 103.6145 24.85248 -126.6362 102.5793 45.08083 -132.4128 103.6145 45.08083 -130.7335 112.9988 45.08083 -140.8089 114.8021 45.08083 -142.5553 105.0506 45.08083 -144.2233 95.78878 45.08083 -128.3714 92.939 45.08083</float_array>
      <technique_common>
        <accessor source="#_35658900-mesh-positions-array" count="14" stride="3">
          <param name="X" type="float" />
          <param name="Y" type="float" />
          <param name="Z" type="float" />
        </accessor>
      </technique_common>
    </source>
    <source id="_35658900-mesh-normals">
      <float_array id="_35658900-mesh-normals-array" count="57">0 0 1 0.176409 0.984317 0 0.9843645 -0.1761438 0 0.1761883 0.9843565 0 -0.9843393 0.176284 0 -0.9841665 0.1772466 0 -0.1769384 -0.9842219 0 0.984184 -0.1771489 0 0 0 1 0 0 1 0 0 1 0 0 1 0.176409 0.984317 0 0.9843645 -0.1761437 0 0.1761883 0.9843565 0 -0.9843394 0.176284 0 -0.9841665 0.1772466 0 -0.1769384 -0.9842219 0 0.984184 -0.1771489 0</float_array>
      <technique_common>
        <accessor source="#_35658900-mesh-normals-array" count="19" stride="3">
          <param name="X" type="float" />
          <param name="Y" type="float" />
          <param name="Z" type="float" />
        </accessor>
      </technique_common>
    </source>
    <vertices id="_35658900-mesh-vertices">
      <input semantic="POSITION" source="#_35658900-mesh-positions" />
    </vertices>
    <triangles count="19">
      <input semantic="VERTEX" source="#_35658900-mesh-vertices" offset="0" />
      <input semantic="NORMAL" source="#_35658900-mesh-normals" offset="1" />
      <p>8 0 10 0 11 0 8 1 0 1 6 1 5 2 8 2 6 2 10 3 5 3 4 3 11 4 4 4 3 4 12 5 3 5 2 5 1 6 12 6 2 6 0 7 13 7 1 7 13 8 7 8 8 8 8 9 9 9 10 9 11 10 12 10 8 10 12 11 13 11 8 11 8 12 7 12 0 12 5 13 9 13 8 13 10 14 9 14 5 14 11 15 10 15 4 15 12 16 11 16 3 16 1 17 13 17 12 17 0 18 7 18 13 18</p>
    </triangles>
  </mesh>
</geometry>

      </library_geometries>
      <library_visual_scenes>
        <visual_scene id="Scene" name="Scene">
          <node id="535658900" name="535658900" type="NODE">
            <instance_geometry url="#_35658900-mesh"/>
          </node>
        </visual_scene>
      </library_visual_scenes>
      <scene>
        <instance_visual_scene url="#Scene"/>
      </scene>
    </COLLADA>
