    <?xml version="1.0" encoding="utf-8"?>
    <COLLADA xmlns="http://www.collada.org/2005/11/COLLADASchema" version="1.4.1">
      <asset>
        <unit name="meter" meter="1"/>
        <up_axis>Z_UP</up_axis>
      </asset>
      <library_geometries>
        <geometry id="_35658903-mesh" name="535658903">
  <mesh>
    <source id="_35658903-mesh-positions">
      <float_array id="_35658903-mesh-positions-array" count="48">-7.881057 -72.87139 38.35181 -6.19063 -76.0774 38.28569 -4.276306 -75.06439 38.11809 0.9405091 -84.90503 38.4145 -6.134655 -88.6565 38.68192 -9.01174 -83.21297 38.59024 -23.54269 -90.91628 39.0691 -27.57285 -83.30203 39.26336 -7.881057 -72.87139 59.26336 -27.57285 -83.30203 59.26336 -23.54269 -90.91628 59.26336 -9.01174 -83.21297 59.26336 -6.134655 -88.6565 59.26336 0.9405091 -84.90503 59.26336 -4.276306 -75.06439 59.26336 -6.19063 -76.0774 59.26336</float_array>
      <technique_common>
        <accessor source="#_35658903-mesh-positions-array" count="16" stride="3">
          <param name="X" type="float" />
          <param name="Y" type="float" />
          <param name="Z" type="float" />
        </accessor>
      </technique_common>
    </source>
    <source id="_35658903-mesh-normals">
      <float_array id="_35658903-mesh-normals-array" count="66">0 0 1 -0.4680829 0.8836846 0 -0.883832 -0.4678044 0 0.468384 -0.8835251 0 -0.884109 -0.4672809 0 0.4684523 -0.8834888 0 0.8835256 0.4683829 0 -0.4677227 0.8838753 0 0.8845703 0.466407 0 0 0 1 0 0 1 0 0 1 0 0 1 0 0 1 -0.4680829 0.8836846 0 -0.883832 -0.4678044 0 0.468384 -0.883525 0 -0.8841089 -0.4672808 0 0.4684523 -0.8834888 0 0.8835256 0.4683829 0 -0.4677227 0.8838753 0 0.8845703 0.466407 0</float_array>
      <technique_common>
        <accessor source="#_35658903-mesh-normals-array" count="22" stride="3">
          <param name="X" type="float" />
          <param name="Y" type="float" />
          <param name="Z" type="float" />
        </accessor>
      </technique_common>
    </source>
    <vertices id="_35658903-mesh-vertices">
      <input semantic="POSITION" source="#_35658903-mesh-positions" />
    </vertices>
    <triangles count="22">
      <input semantic="VERTEX" source="#_35658903-mesh-vertices" offset="0" />
      <input semantic="NORMAL" source="#_35658903-mesh-normals" offset="1" />
      <p>11 0 13 0 15 0 7 1 8 1 0 1 10 2 7 2 6 2 11 3 6 3 5 3 4 4 11 4 5 4 13 5 4 5 3 5 14 6 3 6 2 6 1 7 14 7 2 7 0 8 15 8 1 8 15 9 8 9 11 9 8 10 9 10 11 10 9 11 10 11 11 11 11 12 12 12 13 12 13 13 14 13 15 13 7 14 9 14 8 14 10 15 9 15 7 15 11 16 10 16 6 16 4 17 12 17 11 17 13 18 12 18 4 18 14 19 13 19 3 19 1 20 15 20 14 20 0 21 8 21 15 21</p>
    </triangles>
  </mesh>
</geometry>

      </library_geometries>
      <library_visual_scenes>
        <visual_scene id="Scene" name="Scene">
          <node id="535658903" name="535658903" type="NODE">
            <instance_geometry url="#_35658903-mesh"/>
          </node>
        </visual_scene>
      </library_visual_scenes>
      <scene>
        <instance_visual_scene url="#Scene"/>
      </scene>
    </COLLADA>
