<?xml version="1.0" encoding="utf-8"?>
<COLLADA xmlns="http://www.collada.org/2005/11/COLLADASchema" version="1.4.1">
  <asset><unit name="meter" meter="1"/><up_axis>Z_UP</up_axis></asset>
  <library_geometries>
    <geometry id="B900Roof-mesh" name="Building 535658900 Roof">
      <mesh>
        <source id="B900Roof-positions">
          <float_array id="B900Roof-positions-array" count="24">-126.24147 102.51460 45.08083 -128.16294 92.59762 45.08083 -144.52105 95.52168 45.08083 -142.95114 105.10815 45.08083 -140.99521 115.15606 45.08083 -130.55920 113.35883 45.08083 -132.01619 103.56250 45.08083 -135.10591 103.96758 48.08083</float_array>
          <technique_common>
            <accessor source="#B900Roof-positions-array" count="8" stride="3">
              <param name="X" type="float"/><param name="Y" type="float"/><param name="Z" type="float"/>
            </accessor>
          </technique_common>
        </source>
        <source id="B900Roof-normals">
          <float_array id="B900Roof-normals-array" count="21">-0.3111 0.0603 -0.9485 0.0507 0.2836 -0.9576 0.3493 -0.0572 -0.9353 0.3478 -0.0677 -0.9351 -0.0486 -0.2825 -0.9580 -0.6861 0.1020 -0.7204 -0.1783 -0.9827 -0.0510</float_array>
          <technique_common>
            <accessor source="#B900Roof-normals-array" count="7" stride="3">
              <param name="X" type="float"/><param name="Y" type="float"/><param name="Z" type="float"/>
            </accessor>
          </technique_common>
        </source>
        <vertices id="B900Roof-vertices">
          <input semantic="POSITION" source="#B900Roof-positions"/>
        </vertices>
        <triangles count="7">
          <input semantic="VERTEX"  source="#B900Roof-vertices" offset="0"/>
          <input semantic="NORMAL"  source="#B900Roof-normals"  offset="1"/>
          <p>0 0 1 0 7 0 1 1 2 1 7 1 2 2 3 2 7 2 3 3 4 3 7 3 4 4 5 4 7 4 5 5 6 5 7 5 6 6 0 6 7 6</p>
        </triangles>
      </mesh>
    </geometry>
  </library_geometries>
  <library_visual_scenes>
    <visual_scene id="Scene" name="Scene">
      <node id="B900Roof-node" name="Building 535658900 Roof" type="NODE">
        <instance_geometry url="#B900Roof-mesh"/>
      </node>
    </visual_scene>
  </library_visual_scenes>
  <scene><instance_visual_scene url="#Scene"/></scene>
</COLLADA>
