    <?xml version="1.0" encoding="utf-8"?>
    <COLLADA xmlns="http://www.collada.org/2005/11/COLLADASchema" version="1.4.1">
      <asset>
        <unit name="meter" meter="1"/>
        <up_axis>Z_UP</up_axis>
      </asset>
      <library_geometries>
        <geometry id="_35658902-mesh" name="535658902">
  <mesh>
    <source id="_35658902-mesh-positions">
      <float_array id="_35658902-mesh-positions-array" count="24">-110.3141 119.3774 25.48831 -106.1272 107.7334 25.74036 -121.3635 102.2676 25.25041 -125.5503 113.9116 25.08605 -110.3141 119.3774 45.74036 -125.5503 113.9116 45.74036 -121.3635 102.2676 45.74036 -106.1272 107.7334 45.74036</float_array>
      <technique_common>
        <accessor source="#_35658902-mesh-positions-array" count="8" stride="3">
          <param name="X" type="float" />
          <param name="Y" type="float" />
          <param name="Z" type="float" />
        </accessor>
      </technique_common>
    </source>
    <source id="_35658902-mesh-normals">
      <float_array id="_35658902-mesh-normals-array" count="30">0 0 1 -0.3376668 0.9412657 0 -0.9410154 -0.3383637 0 0.3376668 -0.9412658 0 0.9410154 0.3383637 0 0 0 1 -0.3376668 0.9412657 0 -0.9410154 -0.3383637 0 0.3376668 -0.9412657 0 0.9410154 0.3383637 0</float_array>
      <technique_common>
        <accessor source="#_35658902-mesh-normals-array" count="10" stride="3">
          <param name="X" type="float" />
          <param name="Y" type="float" />
          <param name="Z" type="float" />
        </accessor>
      </technique_common>
    </source>
    <vertices id="_35658902-mesh-vertices">
      <input semantic="POSITION" source="#_35658902-mesh-positions" />
    </vertices>
    <triangles count="10">
      <input semantic="VERTEX" source="#_35658902-mesh-vertices" offset="0" />
      <input semantic="NORMAL" source="#_35658902-mesh-normals" offset="1" />
      <p>4 0 6 0 7 0 5 1 0 1 3 1 2 2 5 2 3 2 1 3 6 3 2 3 4 4 1 4 0 4 4 5 5 5 6 5 5 6 4 6 0 6 2 7 6 7 5 7 1 8 7 8 6 8 4 9 7 9 1 9</p>
    </triangles>
  </mesh>
</geometry>

      </library_geometries>
      <library_visual_scenes>
        <visual_scene id="Scene" name="Scene">
          <node id="535658902" name="535658902" type="NODE">
            <instance_geometry url="#_35658902-mesh"/>
          </node>
        </visual_scene>
      </library_visual_scenes>
      <scene>
        <instance_visual_scene url="#Scene"/>
      </scene>
    </COLLADA>
