    <?xml version="1.0" encoding="utf-8"?>
    <COLLADA xmlns="http://www.collada.org/2005/11/COLLADASchema" version="1.4.1">
      <asset>
        <unit name="meter" meter="1"/>
        <up_axis>Z_UP</up_axis>
      </asset>
      <library_geometries>
        <geometry id="Cafeteria-mesh" name="Cafeteria">
  <mesh>
    <source id="Cafeteria-mesh-positions">
      <float_array id="Cafeteria-mesh-positions-array" count="24">40.55921 -11.59001 37.54257 29.80092 -34.27692 37.85761 66.83362 -49.20486 35.83675 76.98739 -25.91683 35.11337 40.55921 -11.59001 57.85761 29.80092 -34.27692 57.85761 66.83362 -49.20486 57.85761 76.98739 -25.91683 57.85761</float_array>
      <technique_common>
        <accessor source="#Cafeteria-mesh-positions-array" count="8" stride="3">
          <param name="X" type="float" />
          <param name="Y" type="float" />
          <param name="Z" type="float" />
        </accessor>
      </technique_common>
    </source>
    <source id="Cafeteria-mesh-normals">
      <float_array id="Cafeteria-mesh-normals-array" count="30">0 0 1 -0.9035551 0.4284719 0 -0.3738693 -0.9274814 0 0.9166589 -0.3996706 0 0.3660008 0.9306145 0 0 0 1 -0.9035551 0.4284719 0 -0.3738693 -0.9274814 0 0.9166588 -0.3996706 0 0.3660008 0.9306145 0</float_array>
      <technique_common>
        <accessor source="#Cafeteria-mesh-normals-array" count="10" stride="3">
          <param name="X" type="float" />
          <param name="Y" type="float" />
          <param name="Z" type="float" />
        </accessor>
      </technique_common>
    </source>
    <vertices id="Cafeteria-mesh-vertices">
      <input semantic="POSITION" source="#Cafeteria-mesh-positions" />
    </vertices>
    <triangles count="10">
      <input semantic="VERTEX" source="#Cafeteria-mesh-vertices" offset="0" />
      <input semantic="NORMAL" source="#Cafeteria-mesh-normals" offset="1" />
      <p>4 0 6 0 7 0 1 1 4 1 0 1 6 2 1 2 2 2 7 3 2 3 3 3 0 4 7 4 3 4 4 5 5 5 6 5 1 6 5 6 4 6 6 7 5 7 1 7 7 8 6 8 2 8 0 9 4 9 7 9</p>
    </triangles>
  </mesh>
</geometry>

      </library_geometries>
      <library_visual_scenes>
        <visual_scene id="Scene" name="Scene">
          <node id="Cafeteria" name="Cafeteria" type="NODE">
            <instance_geometry url="#Cafeteria-mesh"/>
          </node>
        </visual_scene>
      </library_visual_scenes>
      <scene>
        <instance_visual_scene url="#Scene"/>
      </scene>
    </COLLADA>
