    <?xml version="1.0" encoding="utf-8"?>
    <COLLADA xmlns="http://www.collada.org/2005/11/COLLADASchema" version="1.4.1">
      <asset>
        <unit name="meter" meter="1"/>
        <up_axis>Z_UP</up_axis>
      </asset>
      <library_geometries>
        <geometry id="Lecture_hall_1-mesh" name="Lecture hall 1">
  <mesh>
    <source id="Lecture_hall_1-mesh-positions">
      <float_array id="Lecture_hall_1-mesh-positions-array" count="24">122.0692 76.19654 38.9792 73.10276 117.3959 39.82116 56.98211 97.69234 38.29745 107.1352 57.68411 34.4585 122.0692 76.19654 59.82116 73.10276 117.3959 59.82116 56.98211 97.69234 59.82116 107.1352 57.68411 59.82116</float_array>
      <technique_common>
        <accessor source="#Lecture_hall_1-mesh-positions-array" count="8" stride="3">
          <param name="X" type="float" />
          <param name="Y" type="float" />
          <param name="Z" type="float" />
        </accessor>
      </technique_common>
    </source>
    <source id="Lecture_hall_1-mesh-normals">
      <float_array id="Lecture_hall_1-mesh-normals-array" count="30">0 0 1 0.6438103 0.7651852 0 -0.7739657 0.6332276 0 -0.6236084 -0.7817369 0 0.7783182 -0.6278701 0 0 0 1 0.6438103 0.7651852 0 -0.7739656 0.6332275 0 -0.6236084 -0.781737 0 0.7783182 -0.62787 0</float_array>
      <technique_common>
        <accessor source="#Lecture_hall_1-mesh-normals-array" count="10" stride="3">
          <param name="X" type="float" />
          <param name="Y" type="float" />
          <param name="Z" type="float" />
        </accessor>
      </technique_common>
    </source>
    <vertices id="Lecture_hall_1-mesh-vertices">
      <input semantic="POSITION" source="#Lecture_hall_1-mesh-positions" />
    </vertices>
    <triangles count="10">
      <input semantic="VERTEX" source="#Lecture_hall_1-mesh-vertices" offset="0" />
      <input semantic="NORMAL" source="#Lecture_hall_1-mesh-normals" offset="1" />
      <p>4 0 6 0 7 0 1 1 4 1 0 1 6 2 1 2 2 2 7 3 2 3 3 3 0 4 7 4 3 4 4 5 5 5 6 5 1 6 5 6 4 6 6 7 5 7 1 7 7 8 6 8 2 8 0 9 4 9 7 9</p>
    </triangles>
  </mesh>
</geometry>

      </library_geometries>
      <library_visual_scenes>
        <visual_scene id="Scene" name="Scene">
          <node id="Lecture hall 1" name="Lecture hall 1" type="NODE">
            <instance_geometry url="#Lecture_hall_1-mesh"/>
          </node>
        </visual_scene>
      </library_visual_scenes>
      <scene>
        <instance_visual_scene url="#Scene"/>
      </scene>
    </COLLADA>
