    <?xml version="1.0" encoding="utf-8"?>
    <COLLADA xmlns="http://www.collada.org/2005/11/COLLADASchema" version="1.4.1">
      <asset>
        <unit name="meter" meter="1"/>
        <up_axis>Z_UP</up_axis>
      </asset>
      <library_geometries>
        <geometry id="Lecture_Hall_2-mesh" name="Lecture Hall 2">
  <mesh>
    <source id="Lecture_Hall_2-mesh-positions">
      <float_array id="Lecture_Hall_2-mesh-positions-array" count="24">116.998 116.2048 41.71548 96.69041 130.5316 39.71419 84.15213 114.4125 40.46341 103.8551 100.0857 40.73055 116.998 116.2048 61.71548 96.69041 130.5316 61.71548 84.15213 114.4125 61.71548 103.8551 100.0857 61.71548</float_array>
      <technique_common>
        <accessor source="#Lecture_Hall_2-mesh-positions-array" count="8" stride="3">
          <param name="X" type="float" />
          <param name="Y" type="float" />
          <param name="Z" type="float" />
        </accessor>
      </technique_common>
    </source>
    <source id="Lecture_Hall_2-mesh-normals">
      <float_array id="Lecture_Hall_2-mesh-normals-array" count="30">0 0 1 0.5764704 0.817118 0 -0.7893229 0.6139783 0 -0.5881006 -0.8087878 0 0.7750287 -0.6319261 0 0 0 1 0.5764705 0.817118 0 -0.7893229 0.6139783 0 -0.5881006 -0.8087878 0 0.7750287 -0.6319261 0</float_array>
      <technique_common>
        <accessor source="#Lecture_Hall_2-mesh-normals-array" count="10" stride="3">
          <param name="X" type="float" />
          <param name="Y" type="float" />
          <param name="Z" type="float" />
        </accessor>
      </technique_common>
    </source>
    <vertices id="Lecture_Hall_2-mesh-vertices">
      <input semantic="POSITION" source="#Lecture_Hall_2-mesh-positions" />
    </vertices>
    <triangles count="10">
      <input semantic="VERTEX" source="#Lecture_Hall_2-mesh-vertices" offset="0" />
      <input semantic="NORMAL" source="#Lecture_Hall_2-mesh-normals" offset="1" />
      <p>5 0 7 0 4 0 5 1 0 1 1 1 2 2 5 2 1 2 3 3 6 3 2 3 0 4 7 4 3 4 5 5 6 5 7 5 5 6 4 6 0 6 2 7 6 7 5 7 3 8 7 8 6 8 0 9 4 9 7 9</p>
    </triangles>
  </mesh>
</geometry>

      </library_geometries>
      <library_visual_scenes>
        <visual_scene id="Scene" name="Scene">
          <node id="Lecture Hall 2" name="Lecture Hall 2" type="NODE">
            <instance_geometry url="#Lecture_Hall_2-mesh"/>
          </node>
        </visual_scene>
      </library_visual_scenes>
      <scene>
        <instance_visual_scene url="#Scene"/>
      </scene>
    </COLLADA>
